<svg xmlns="http://www.w3.org/2000/svg" width="800" height="1000" viewBox="0 0 800 1000">
  <defs>
    <linearGradient id="g" x1="0" y1="0" x2="0.9" y2="1">
      <stop offset="0" stop-color="#6b4e32"/>
      <stop offset="0.5" stop-color="#4a3524"/>
      <stop offset="1" stop-color="#2b1f14"/>
    </linearGradient>
    <radialGradient id="v" cx="0.5" cy="0.42" r="0.9">
      <stop offset="0.55" stop-color="#000" stop-opacity="0"/>
      <stop offset="1" stop-color="#000" stop-opacity="0.35"/>
    </radialGradient>
  </defs>
  <rect width="800" height="1000" fill="url(#g)"/>
  <g>
    <path d="M -20 -2 Q 41 -5 102 -6 Q 186 -5 270 3 Q 322 -7 375 -3 Q 491 11 608 -6 Q 706 -0 804 3 Q 879 -6 954 -5" fill="none" stroke="#2b1f14" stroke-opacity="0.09" stroke-width="2.0"/>
    <path d="M -20 61 Q 75 65 170 57 Q 275 53 380 58 Q 470 47 559 64 Q 624 52 688 65 Q 761 50 834 65" fill="none" stroke="#2b1f14" stroke-opacity="0.08" stroke-width="2.0"/>
    <path d="M -20 116 Q 48 112 115 118 Q 167 109 219 119 Q 285 114 352 113 Q 406 120 459 117 Q 562 116 664 119 Q 750 111 836 117" fill="none" stroke="#2b1f14" stroke-opacity="0.19" stroke-width="0.9"/>
    <path d="M -20 194 Q 67 193 153 199 Q 207 193 262 193 Q 360 194 458 198 Q 513 178 568 195 Q 622 185 677 196 Q 765 187 854 199" fill="none" stroke="#2b1f14" stroke-opacity="0.14" stroke-width="1.4"/>
    <path d="M -20 253 Q 79 257 178 254 Q 282 255 386 250 Q 468 249 549 251 Q 631 251 713 248 Q 792 255 872 251" fill="none" stroke="#2b1f14" stroke-opacity="0.10" stroke-width="2.1"/>
    <path d="M -20 302 Q 37 287 93 304 Q 200 304 307 303 Q 396 296 485 298 Q 560 308 635 305 Q 746 311 856 307" fill="none" stroke="#2b1f14" stroke-opacity="0.15" stroke-width="1.3"/>
    <path d="M -20 377 Q 76 372 172 373 Q 281 375 390 379 Q 480 382 571 380 Q 689 382 807 378 Q 902 369 997 381" fill="none" stroke="#2b1f14" stroke-opacity="0.18" stroke-width="1.2"/>
    <path d="M -20 430 Q 52 424 123 425 Q 234 432 345 429 Q 405 434 465 425 Q 567 420 669 429 Q 743 425 817 432 Q 921 432 1026 426" fill="none" stroke="#2b1f14" stroke-opacity="0.09" stroke-width="1.0"/>
    <path d="M -20 503 Q 49 508 118 503 Q 199 495 280 505 Q 338 501 396 501 Q 493 502 591 504 Q 644 499 697 504 Q 748 496 798 500 Q 858 495 918 501" fill="none" stroke="#2b1f14" stroke-opacity="0.08" stroke-width="1.8"/>
    <path d="M -20 555 Q 79 555 179 558 Q 285 545 391 558 Q 444 544 497 559 Q 608 556 718 555 Q 818 553 917 551" fill="none" stroke="#2b1f14" stroke-opacity="0.08" stroke-width="1.3"/>
    <path d="M -20 632 Q 88 645 196 628 Q 306 624 415 633 Q 501 629 588 630 Q 662 627 736 629 Q 821 620 907 632" fill="none" stroke="#2b1f14" stroke-opacity="0.19" stroke-width="1.3"/>
    <path d="M -20 693 Q 87 683 194 689 Q 258 697 322 696 Q 418 681 513 696 Q 598 703 683 696 Q 764 709 846 694" fill="none" stroke="#2b1f14" stroke-opacity="0.16" stroke-width="1.7"/>
    <path d="M -20 759 Q 41 745 101 758 Q 172 752 244 754 Q 329 753 415 758 Q 469 769 523 755 Q 633 770 744 760 Q 829 758 915 759" fill="none" stroke="#2b1f14" stroke-opacity="0.18" stroke-width="2.1"/>
    <path d="M -20 811 Q 76 805 171 811 Q 232 795 292 807 Q 405 805 518 813 Q 604 799 689 809 Q 770 809 850 812" fill="none" stroke="#2b1f14" stroke-opacity="0.10" stroke-width="1.3"/>
    <path d="M -20 870 Q 54 872 127 873 Q 223 859 318 866 Q 415 865 513 872 Q 609 880 705 874 Q 778 872 852 866" fill="none" stroke="#2b1f14" stroke-opacity="0.12" stroke-width="2.2"/>
    <path d="M -20 942 Q 72 952 163 940 Q 240 949 316 945 Q 413 950 510 945 Q 608 943 706 944 Q 785 939 865 941" fill="none" stroke="#2b1f14" stroke-opacity="0.10" stroke-width="1.1"/>
  </g>
  <rect width="800" height="1000" fill="url(#v)"/>
  <g opacity="0.85" transform="translate(192 242) scale(4.16)">
    
      <rect x="16" y="38" width="68" height="14" rx="2" fill="none" stroke="#e7c49f" stroke-width="1.6"/>
      <path d="M22 52 L20 88 M78 52 L80 88 M34 52 L34 86 M66 52 L66 86" stroke="#e7c49f" stroke-width="1.6"/>
      <path d="M26 45 H42 M58 45 H74" stroke="#e7c49f" stroke-width="1"/>
      <ellipse cx="50" cy="26" rx="9" ry="9" fill="none" stroke="#e7c49f" stroke-width="1.2"/>
    
  </g>
  <g opacity="0.75">
    <rect x="340" y="718" width="120" height="1" fill="#e7c49f" opacity="0.6"/>
    <text x="400" y="756" text-anchor="middle" font-family="Georgia, 'Times New Roman', serif" font-style="italic" font-size="24" fill="#e7c49f" letter-spacing="1">Ààfin Console</text>
  </g>
</svg>