<svg xmlns="http://www.w3.org/2000/svg" width="900" height="900" viewBox="0 0 900 900">
  <defs>
    <linearGradient id="g" x1="0" y1="0" x2="0.9" y2="1">
      <stop offset="0" stop-color="#7e6240"/>
      <stop offset="0.5" stop-color="#5e462e"/>
      <stop offset="1" stop-color="#3a2b1c"/>
    </linearGradient>
    <radialGradient id="v" cx="0.5" cy="0.42" r="0.9">
      <stop offset="0.55" stop-color="#000" stop-opacity="0"/>
      <stop offset="1" stop-color="#000" stop-opacity="0.35"/>
    </radialGradient>
  </defs>
  <rect width="900" height="900" fill="url(#g)"/>
  <g>
    <path d="M -20 11 Q 87 16 195 8 Q 246 5 297 9 Q 385 9 472 7 Q 576 13 679 7 Q 754 7 829 6 Q 927 7 1024 13" fill="none" stroke="#3a2b1c" stroke-opacity="0.18" stroke-width="1.9"/>
    <path d="M -20 60 Q 93 56 206 58 Q 259 43 313 62 Q 417 74 520 58 Q 587 46 654 59 Q 773 54 892 57 Q 989 50 1086 63" fill="none" stroke="#3a2b1c" stroke-opacity="0.18" stroke-width="2.0"/>
    <path d="M -20 105 Q 59 98 138 103 Q 228 100 317 102 Q 405 111 493 101 Q 558 102 623 101 Q 701 102 779 103 Q 861 98 943 108" fill="none" stroke="#3a2b1c" stroke-opacity="0.16" stroke-width="1.3"/>
    <path d="M -20 158 Q 51 160 122 163 Q 179 159 236 163 Q 346 153 456 163 Q 548 167 640 160 Q 737 167 834 160 Q 908 161 981 162" fill="none" stroke="#3a2b1c" stroke-opacity="0.12" stroke-width="2.0"/>
    <path d="M -20 225 Q 73 226 165 223 Q 260 219 355 225 Q 474 219 593 226 Q 706 220 819 227 Q 922 227 1025 220" fill="none" stroke="#3a2b1c" stroke-opacity="0.12" stroke-width="1.2"/>
    <path d="M -20 273 Q 33 280 85 274 Q 202 277 318 271 Q 387 275 457 275 Q 543 281 630 274 Q 700 265 770 276 Q 843 269 916 273 Q 1030 276 1143 270" fill="none" stroke="#3a2b1c" stroke-opacity="0.16" stroke-width="1.8"/>
    <path d="M -20 340 Q 53 339 125 335 Q 236 330 347 337 Q 441 332 536 337 Q 592 342 648 343 Q 764 334 879 336 Q 980 336 1080 342" fill="none" stroke="#3a2b1c" stroke-opacity="0.11" stroke-width="1.0"/>
    <path d="M -20 388 Q 61 390 143 385 Q 247 379 352 392 Q 430 381 508 387 Q 593 392 679 390 Q 786 394 893 383 Q 970 395 1047 390" fill="none" stroke="#3a2b1c" stroke-opacity="0.19" stroke-width="1.6"/>
    <path d="M -20 442 Q 48 440 116 441 Q 192 445 269 437 Q 328 441 388 438 Q 451 425 514 442 Q 615 441 716 446 Q 832 458 947 440" fill="none" stroke="#3a2b1c" stroke-opacity="0.14" stroke-width="1.7"/>
    <path d="M -20 508 Q 33 518 85 507 Q 175 501 265 508 Q 332 518 400 511 Q 486 508 572 510 Q 670 512 769 513 Q 871 502 972 504" fill="none" stroke="#3a2b1c" stroke-opacity="0.18" stroke-width="1.7"/>
    <path d="M -20 567 Q 75 559 170 566 Q 268 558 366 568 Q 482 578 599 562 Q 703 572 807 571 Q 885 570 963 571" fill="none" stroke="#3a2b1c" stroke-opacity="0.14" stroke-width="1.1"/>
    <path d="M -20 617 Q 48 609 115 622 Q 211 612 308 615 Q 386 631 465 619 Q 521 622 578 620 Q 652 603 726 619 Q 841 613 956 615" fill="none" stroke="#3a2b1c" stroke-opacity="0.20" stroke-width="1.9"/>
    <path d="M -20 663 Q 79 663 177 665 Q 279 659 380 662 Q 479 659 579 660 Q 695 662 811 666 Q 874 658 937 660" fill="none" stroke="#3a2b1c" stroke-opacity="0.17" stroke-width="1.2"/>
    <path d="M -20 741 Q 74 744 168 745 Q 229 736 291 740 Q 360 737 430 742 Q 513 745 597 737 Q 651 747 705 736 Q 796 753 887 737 Q 973 729 1060 742" fill="none" stroke="#3a2b1c" stroke-opacity="0.20" stroke-width="1.9"/>
    <path d="M -20 798 Q 54 796 127 797 Q 239 811 352 801 Q 468 802 584 797 Q 638 794 692 796 Q 749 797 806 800 Q 906 808 1007 794" fill="none" stroke="#3a2b1c" stroke-opacity="0.15" stroke-width="2.0"/>
    <path d="M -20 838 Q 87 834 194 840 Q 290 838 386 838 Q 450 855 513 843 Q 620 822 726 837 Q 780 849 833 837 Q 914 842 995 837" fill="none" stroke="#3a2b1c" stroke-opacity="0.15" stroke-width="0.9"/>
  </g>
  <rect width="900" height="900" fill="url(#v)"/>
  <g opacity="0.85" transform="translate(216 171) scale(4.68)">
    
      <ellipse cx="50" cy="50" rx="8" ry="5" fill="none" stroke="#e7c49f" stroke-width="1.2"/>
      <ellipse cx="50" cy="50" rx="17" ry="11" fill="none" stroke="#e7c49f" stroke-width="1"/>
      <ellipse cx="50" cy="50" rx="27" ry="18" fill="none" stroke="#e7c49f" stroke-width="0.8"/>
      <ellipse cx="50" cy="50" rx="38" ry="26" fill="none" stroke="#e7c49f" stroke-width="0.6" opacity="0.7"/>
    
  </g>
  <g opacity="0.75">
    <rect x="390" y="693" width="120" height="1" fill="#e7c49f" opacity="0.6"/>
    <text x="450" y="734" text-anchor="middle" font-family="Georgia, 'Times New Roman', serif" font-style="italic" font-size="27" fill="#e7c49f" letter-spacing="1">Irókò Grain</text>
  </g>
</svg>